<svg id="svg" version="1.1" width="800" height="266" xmlns="http://www.w3.org/2000/svg" xmlns:xlink="http://www.w3.org/1999/xlink" ><g id="svgg"><path id="path0" d="M322.000 1.226 C 302.531 4.421,285.684 16.260,274.180 34.831 C 273.641 35.701,273.535 35.681,272.180 34.449 C 256.324 20.023,229.204 20.961,213.374 36.482 L 209.498 40.282 207.124 37.854 C 190.024 20.360,162.027 20.028,144.939 37.117 L 141.664 40.392 139.957 38.475 C 124.451 21.059,95.791 20.403,78.253 37.063 L 74.456 40.669 72.103 38.419 C 54.944 22.014,27.386 22.813,11.133 40.188 C -3.553 55.887,-3.503 79.726,11.250 95.410 C 14.486 98.850,19.782 103.000,20.937 103.000 C 21.207 103.000,21.726 103.290,22.089 103.644 C 23.044 104.575,27.222 106.278,31.523 107.489 C 45.570 111.445,62.086 106.889,72.754 96.116 L 76.011 92.827 78.380 95.215 C 94.245 111.209,121.188 110.854,138.758 94.418 L 142.003 91.382 145.418 94.604 C 162.878 111.074,190.156 110.498,206.973 93.304 L 209.696 90.521 213.223 93.918 C 228.597 108.725,251.248 110.463,268.899 98.190 C 272.667 95.569,272.748 95.560,273.809 97.625 C 295.549 139.927,357.240 144.446,386.303 105.865 C 422.079 58.372,381.009 -8.460,322.000 1.226 M342.250 2.734 C 405.526 11.792,418.385 96.424,360.750 124.498 C 329.901 139.524,290.446 126.506,275.116 96.242 L 274.100 94.235 276.411 91.397 L 278.723 88.559 280.492 91.905 C 309.247 146.280,390.699 127.319,390.699 66.250 C 390.699 33.321,366.262 9.191,333.000 9.275 C 310.716 9.331,290.821 21.035,281.447 39.605 C 279.684 43.097,279.776 43.096,277.103 39.690 L 274.955 36.955 276.797 33.923 C 284.621 21.042,298.437 10.006,312.647 5.287 C 315.991 4.176,318.258 3.694,326.500 2.341 C 329.404 1.865,337.607 2.069,342.250 2.734 M254.250 26.920 C 292.675 37.365,295.039 88.960,257.705 102.304 C 242.140 107.867,223.764 103.588,213.316 91.968 C 210.722 89.083,210.680 88.953,211.803 87.239 L 212.607 86.013 216.072 89.723 C 239.002 114.276,280.707 98.324,280.707 65.000 C 280.707 31.595,238.819 16.195,215.745 41.117 C 213.108 43.965,212.332 44.549,211.949 43.973 C 210.406 41.659,210.398 41.683,213.877 38.101 C 224.009 27.669,240.353 23.142,254.250 26.920 M115.750 27.064 C 146.576 32.034,159.739 69.554,138.569 92.105 C 112.373 120.009,65.589 101.329,67.641 63.784 C 68.951 39.802,90.892 23.056,115.750 27.064 M187.000 27.482 C 216.491 35.929,226.252 71.766,204.883 93.136 C 188.857 109.161,161.678 109.063,145.883 92.921 C 142.651 89.618,142.681 89.693,143.928 88.072 L 144.834 86.894 148.805 90.822 C 176.632 118.348,223.535 90.372,210.889 53.791 C 201.729 27.294,163.881 20.429,147.000 42.202 C 145.055 44.711,144.592 44.791,143.500 42.806 C 142.755 41.450,142.773 41.420,146.567 37.767 C 157.159 27.569,173.124 23.508,187.000 27.482 M49.000 28.534 C 60.663 30.424,75.274 39.827,72.686 43.777 L 71.842 45.065 68.796 42.079 C 42.656 16.454,-1.123 39.859,6.214 75.537 C 12.283 105.051,52.620 114.138,71.428 90.228 L 72.589 88.751 73.545 89.931 C 74.962 91.682,74.843 91.926,70.580 96.000 C 44.902 120.542,1.803 102.824,1.859 67.750 C 1.898 43.261,24.393 24.547,49.000 28.534 M101.882 29.982 C 67.161 36.331,59.855 82.566,91.088 98.294 C 117.346 111.518,148.646 90.238,145.045 61.610 C 142.456 41.024,122.292 26.250,101.882 29.982 M371.000 48.116 C 376.939 49.891,379.361 56.370,376.041 61.606 C 375.238 62.871,374.113 64.055,373.541 64.237 C 372.257 64.645,372.197 65.336,373.412 65.722 C 378.514 67.341,379.456 76.015,375.002 80.352 C 370.337 84.895,359.500 84.437,359.500 79.698 L 359.500 77.549 361.625 78.513 C 367.387 81.129,373.500 78.419,373.500 73.250 C 373.500 69.148,370.199 66.850,364.603 67.057 L 361.250 67.181 361.098 65.126 L 360.946 63.071 364.606 63.109 C 370.279 63.168,373.136 61.145,373.136 57.070 C 373.136 52.006,366.854 49.269,361.500 52.000 C 358.946 53.303,359.000 53.325,359.000 50.988 C 359.000 47.649,364.797 46.262,371.000 48.116 M307.639 48.030 C 315.265 50.148,317.514 60.073,312.617 70.000 C 311.062 73.151,303.343 81.186,300.374 82.744 L 298.498 83.729 296.956 82.187 L 295.414 80.645 297.800 79.247 C 300.833 77.470,306.392 71.884,307.937 69.062 L 309.124 66.893 307.937 67.322 C 300.978 69.833,294.250 65.418,294.250 58.338 C 294.250 50.476,300.133 45.946,307.639 48.030 M335.405 49.625 L 335.560 51.500 330.102 51.500 L 324.645 51.500 324.326 54.875 C 323.735 61.128,323.697 61.000,326.152 61.000 C 337.908 61.000,340.540 77.743,329.552 82.633 C 324.368 84.940,316.500 83.184,316.500 79.720 C 316.500 78.044,316.598 77.914,317.625 78.237 C 325.072 80.582,328.509 79.969,331.022 75.848 C 334.501 70.142,330.271 64.167,322.861 64.320 L 319.472 64.390 319.753 59.820 C 319.908 57.307,320.158 53.626,320.308 51.640 L 320.582 48.030 326.666 47.890 C 330.012 47.813,333.313 47.750,334.000 47.750 C 335.084 47.750,335.271 48.000,335.405 49.625 M246.048 49.267 C 252.650 51.596,254.280 59.970,248.944 64.145 L 247.368 65.379 249.059 65.956 C 257.703 68.904,256.671 80.961,247.559 83.492 C 246.564 83.768,242.550 83.996,238.638 83.997 L 231.526 84.000 231.388 67.375 C 231.312 58.231,231.322 50.244,231.410 49.625 C 231.615 48.179,242.229 47.920,246.048 49.267 M180.077 51.118 C 185.666 54.404,185.968 62.974,180.604 66.061 L 178.624 67.201 179.969 68.546 C 181.173 69.749,190.500 84.091,190.500 84.738 C 190.500 84.882,189.431 84.998,188.125 84.997 L 185.750 84.993 181.398 78.106 C 175.502 68.774,174.204 67.768,168.861 68.392 L 167.000 68.609 167.000 76.805 L 167.000 85.000 164.750 85.000 L 162.500 85.000 162.500 67.205 L 162.500 49.410 170.125 49.580 C 177.382 49.742,177.862 49.816,180.077 51.118 M97.545 53.875 C 97.570 56.006,97.581 59.494,97.571 61.625 L 97.552 65.500 108.331 65.500 L 119.110 65.500 118.987 58.375 C 118.920 54.456,118.895 50.969,118.932 50.625 C 118.975 50.228,119.819 50.000,121.250 50.000 L 123.500 50.000 123.500 67.750 L 123.500 85.500 121.250 85.500 L 119.000 85.500 119.000 77.500 L 119.000 69.500 108.371 69.500 L 97.741 69.500 97.880 77.500 L 98.018 85.500 95.509 85.500 L 93.000 85.500 93.000 68.083 C 93.000 49.038,92.863 50.000,95.583 50.000 L 97.500 50.000 97.545 53.875 M67.095 51.500 C 66.947 52.214,57.786 76.147,55.036 83.000 C 52.626 89.009,52.210 88.542,46.028 72.876 C 43.125 65.520,40.617 59.501,40.454 59.501 C 40.290 59.500,37.903 65.519,35.148 72.875 C 28.295 91.175,29.416 91.436,20.672 69.500 C 17.000 60.287,13.869 52.356,13.714 51.875 C 13.472 51.123,13.772 51.001,15.841 51.005 L 18.250 51.011 19.683 54.880 C 22.672 62.949,28.141 76.767,28.504 77.166 C 28.904 77.607,29.822 75.335,35.292 60.351 L 38.723 50.953 40.458 51.101 L 42.193 51.250 45.365 59.500 C 53.137 79.714,52.365 78.225,53.463 75.125 C 54.121 73.269,61.037 54.999,62.065 52.403 C 62.603 51.044,63.711 50.560,66.000 50.683 C 66.826 50.727,67.197 51.004,67.095 51.500 M302.420 52.216 C 295.700 54.411,298.436 65.351,305.456 64.356 C 310.311 63.667,311.518 62.102,310.545 57.754 C 309.506 53.114,306.320 50.942,302.420 52.216 M236.000 58.250 L 236.000 64.500 238.125 64.488 C 243.379 64.459,246.756 62.393,247.329 58.858 C 248.038 54.490,245.219 52.000,239.566 52.000 L 236.000 52.000 236.000 58.250 M167.007 58.125 C 167.017 65.903,166.888 65.693,171.441 65.281 C 183.253 64.210,183.101 53.000,171.275 53.000 L 167.000 53.000 167.007 58.125 M236.000 73.940 L 236.000 80.500 240.125 80.497 C 247.408 80.492,250.102 78.833,250.204 74.291 C 250.303 69.850,247.538 67.918,240.625 67.596 L 236.000 67.381 236.000 73.940 M350.125 77.903 C 352.174 79.663,350.427 83.500,347.577 83.500 C 343.883 83.500,343.208 78.321,346.733 77.010 C 347.901 76.575,348.879 76.833,350.125 77.903 M330.500 87.650 C 330.500 88.631,330.243 88.800,328.750 88.800 C 325.632 88.800,323.822 93.744,326.814 94.086 C 328.684 94.300,328.742 95.693,326.890 95.907 L 325.530 96.064 325.390 102.157 C 325.259 107.870,325.188 108.250,324.250 108.250 C 323.312 108.250,323.241 107.870,323.110 102.125 L 322.969 96.000 321.698 96.000 C 320.070 96.000,320.229 94.326,321.880 94.090 C 322.758 93.965,323.000 93.604,323.000 92.416 C 323.000 88.810,325.116 86.597,328.625 86.534 C 330.258 86.504,330.500 86.648,330.500 87.650 M332.886 94.278 C 333.277 94.977,333.473 94.969,334.808 94.203 C 336.609 93.169,339.727 93.576,340.589 94.957 C 341.128 95.819,341.242 95.806,342.898 94.682 C 347.924 91.271,350.691 93.781,350.917 101.956 L 351.084 108.000 349.792 108.000 L 348.500 108.000 348.500 102.846 C 348.500 96.960,348.030 95.833,345.577 95.833 C 342.594 95.833,342.000 96.994,342.000 102.827 L 342.000 108.000 340.750 108.000 L 339.500 108.000 339.500 102.914 C 339.500 97.147,338.962 95.989,336.298 96.016 C 333.354 96.046,333.000 96.762,333.000 102.680 L 333.000 108.000 331.750 108.000 L 330.500 108.000 330.500 101.083 C 330.500 97.279,330.650 94.017,330.833 93.833 C 331.415 93.252,332.435 93.473,332.886 94.278 " stroke="none" fill="#ad1b25" fill-rule="evenodd"></path></g></svg>