<?xml version="1.0" standalone="no"?>
<!DOCTYPE svg PUBLIC "-//W3C//DTD SVG 20010904//EN"
 "http://www.w3.org/TR/2001/REC-SVG-20010904/DTD/svg10.dtd">
<svg version="1.0" xmlns="http://www.w3.org/2000/svg"
 width="800.000000pt" height="266.000000pt" viewBox="0 0 800.000000 266.000000"
 preserveAspectRatio="xMidYMid meet">

<g transform="translate(0.000000,266.000000) scale(0.100000,-0.100000)"
fill="#000000" stroke="none">
<path style="fill:#A10D1A;" d="M6427 2635 c-298 -50 -580 -213 -796 -460 -47 -54 -145 -194 -154
-220 -2 -5 -22 6 -44 26 -99 89 -278 169 -429 190 -103 15 -260 5 -353 -21
-166 -47 -265 -103 -384 -218 l-77 -76 -43 45 c-115 119 -218 183 -377 234
-69 22 -110 28 -217 33 -141 5 -211 -4 -318 -40 -135 -47 -268 -130 -354 -223
l-43 -46 -62 59 c-135 130 -295 208 -492 239 -90 15 -117 15 -205 4 -122 -15
-209 -41 -309 -91 -93 -47 -127 -73 -213 -157 l-67 -67 -30 32 c-42 47 -153
128 -221 162 -151 77 -367 108 -539 77 -174 -30 -336 -115 -459 -240 -78 -80
-113 -129 -161 -232 -61 -129 -75 -190 -74 -345 0 -118 4 -147 28 -225 82
-270 279 -466 561 -557 94 -31 108 -33 245 -33 167 0 247 18 387 85 85 41 205
130 259 192 l32 36 28 -30 c91 -95 255 -186 402 -225 87 -22 111 -24 237 -20
159 6 241 25 358 84 96 48 146 83 228 161 l69 65 68 -65 c37 -35 87 -78 112
-95 345 -234 815 -188 1109 110 l64 65 61 -62 c99 -103 225 -176 376 -219 265
-76 552 -23 779 145 28 21 45 29 48 21 2 -6 35 -58 73 -115 234 -353 584 -563
1016 -609 134 -14 253 -5 409 31 522 120 917 532 1021 1066 26 132 24 349 -5
484 -26 121 -85 284 -135 374 -199 354 -546 602 -942 671 -106 18 -357 18
-467 0z m477 -42 c247 -46 470 -161 654 -337 195 -186 317 -408 372 -676 19
-91 21 -128 17 -280 -5 -191 -22 -280 -86 -446 -127 -329 -424 -610 -779 -738
-258 -92 -597 -92 -857 1 -230 83 -439 234 -596 431 -62 77 -139 202 -139 224
0 7 20 35 44 63 l43 49 33 -64 c111 -219 300 -409 517 -519 295 -148 653 -165
958 -44 344 137 612 436 704 787 150 571 -161 1161 -722 1370 -465 173 -995
30 -1311 -355 -40 -49 -93 -125 -118 -169 l-45 -80 -42 49 c-22 27 -41 56 -41
63 0 8 24 50 53 94 189 289 494 502 813 569 172 37 362 40 528 8z m-1842 -468
c313 -72 546 -307 609 -610 24 -115 24 -196 -1 -313 -84 -409 -474 -681 -903
-630 -189 23 -406 134 -512 264 -36 43 -36 46 -21 69 9 14 20 25 24 25 4 0 18
-17 32 -37 66 -96 244 -205 400 -244 72 -18 103 -21 215 -16 183 7 283 42 429
150 91 67 160 152 212 262 199 415 -27 898 -475 1017 -98 26 -275 28 -376 4
-144 -35 -317 -140 -400 -245 -22 -28 -43 -51 -46 -51 -4 0 -12 13 -19 30 -11
28 -10 32 19 66 136 154 340 256 556 278 60 6 192 -4 257 -19z m-1397 -1 c164
-30 292 -95 414 -209 133 -125 206 -264 238 -453 20 -117 7 -243 -36 -370 -37
-108 -80 -178 -166 -270 -265 -286 -698 -345 -1039 -143 -33 20 -96 69 -138
110 l-78 73 17 29 c17 28 33 38 33 21 0 -16 117 -125 180 -167 83 -55 165 -89
262 -109 451 -93 878 224 905 674 21 348 -216 662 -567 751 -81 21 -288 18
-370 -5 -142 -39 -276 -120 -368 -222 l-59 -65 -17 26 c-17 26 -17 27 8 60 59
77 195 173 311 220 155 62 308 78 470 49z m-1343 -8 c304 -58 547 -278 627
-566 124 -446 -164 -889 -639 -985 -276 -56 -593 56 -775 273 -217 259 -242
626 -62 915 174 279 519 426 849 363z m-1266 -46 c138 -35 259 -103 365 -205
l49 -47 -17 -29 -17 -29 -56 56 c-158 162 -403 246 -624 215 -576 -80 -846
-726 -493 -1177 234 -298 673 -367 997 -156 30 20 87 69 127 109 l71 72 17
-25 c16 -25 15 -26 -21 -71 -50 -60 -172 -150 -260 -190 -117 -54 -212 -75
-349 -75 -143 0 -238 21 -361 82 -277 136 -443 397 -445 702 -3 339 224 646
556 753 44 14 107 30 140 35 84 12 228 3 321 -20z m5089 -371 c119 -33 182
-161 150 -310 -18 -88 -63 -172 -132 -249 -52 -57 -169 -150 -190 -150 -5 0
-20 12 -34 26 l-24 26 23 17 c74 51 153 125 195 180 50 66 58 88 30 76 -80
-30 -180 -9 -232 50 -97 110 -44 293 94 330 63 17 71 17 120 4z m1290 -8 c49
-22 101 -79 110 -121 14 -64 -3 -121 -51 -169 -24 -24 -43 -45 -42 -46 47 -30
71 -52 82 -74 51 -98 14 -211 -88 -263 -51 -27 -162 -30 -218 -5 -35 15 -38
19 -38 57 l0 40 41 -21 c85 -43 197 -20 227 46 15 33 15 87 0 119 -18 40 -91
71 -165 69 l-63 -1 0 38 0 38 45 -6 c135 -15 235 90 176 185 -48 77 -156 88
-261 26 -3 -2 -6 15 -7 37 -1 22 -1 40 0 40 1 0 20 7 42 15 57 20 161 19 210
-4z m-725 -26 l0 -34 -112 -3 -113 -3 0 -95 0 -95 28 3 c43 5 120 -25 155 -61
62 -64 80 -171 43 -252 -21 -47 -76 -99 -128 -120 -46 -20 -137 -19 -196 1
-46 15 -47 17 -47 56 0 34 3 39 18 33 97 -41 156 -43 218 -5 35 22 74 91 74
131 0 14 -10 45 -22 69 -32 64 -91 93 -173 87 l-60 -4 6 131 c4 72 7 146 8
164 l1 32 150 0 150 0 0 -35z m-1760 -5 c83 -46 113 -146 70 -231 -12 -22 -34
-48 -50 -58 l-29 -17 48 -21 c29 -12 59 -35 77 -58 25 -33 29 -47 29 -100 0
-79 -32 -132 -102 -166 -43 -22 -64 -24 -205 -27 l-158 -4 0 350 c0 271 3 352
13 356 6 2 68 4 137 3 112 -2 130 -5 170 -27z m-1366 -15 c94 -47 129 -147 84
-235 -13 -26 -39 -56 -61 -69 l-37 -25 29 -30 c37 -39 212 -314 203 -319 -4
-1 -25 -3 -47 -2 l-39 0 -92 145 c-107 168 -132 190 -226 190 l-58 0 0 -171 0
-170 -42 3 -43 3 -3 354 -2 353 147 -4 c121 -3 155 -8 187 -23z m-3120 -272
c55 -144 104 -264 107 -268 4 -3 51 115 106 262 99 267 100 268 130 271 35 3
17 42 183 -390 30 -76 56 -138 59 -138 3 0 51 119 105 265 l100 265 43 0 c24
0 43 -3 43 -7 0 -4 -59 -162 -132 -350 -128 -333 -133 -344 -157 -341 -24 3
-34 24 -131 270 -58 147 -107 268 -110 268 -4 0 -33 -75 -183 -472 -24 -66
-32 -78 -52 -78 -21 0 -35 31 -160 343 -76 188 -140 348 -142 355 -4 10 6 12
42 10 l47 -3 102 -262z m6536 -273 c26 -26 25 -60 0 -88 -40 -42 -110 -14
-110 45 0 57 69 84 110 43z m-392 -192 c3 -14 -3 -18 -27 -18 -42 0 -71 -31
-71 -75 0 -31 3 -35 25 -35 18 0 25 -5 25 -20 0 -15 -7 -20 -25 -20 l-25 0 0
-120 0 -120 -25 0 -25 0 2 118 c3 115 3 117 -19 120 -33 5 -31 42 2 42 23 0
25 4 25 43 0 69 40 109 105 104 19 -1 31 -8 33 -19z m175 -130 c12 -6 27 -18
33 -27 10 -13 16 -11 44 12 34 29 65 34 105 15 44 -20 55 -56 55 -173 0 -98
-1 -105 -20 -105 -18 0 -20 7 -21 83 -2 111 -9 138 -41 156 -24 14 -30 14 -62
-2 l-36 -17 0 -110 0 -110 -25 0 -25 0 0 101 c0 55 -4 109 -10 119 -14 26 -55
33 -90 15 l-30 -16 0 -109 c0 -103 -1 -110 -20 -110 -17 0 -20 7 -20 48 0 27
-3 90 -6 140 l-7 92 27 0 c16 0 26 -5 26 -15 0 -12 6 -11 33 5 37 23 59 25 90
8z"/>
<path style="fill:#A10D1A;" d="M2023 2060 c-343 -73 -582 -346 -600 -686 -12 -223 86 -450 255 -589
227 -188 552 -226 817 -95 367 182 516 604 340 965 -93 191 -243 319 -450 385
-78 25 -286 36 -362 20z m-71 -565 l3 -150 210 0 210 0 3 158 3 157 38 0 c26
0 41 -5 45 -16 3 -9 6 -168 6 -355 l0 -339 -45 0 -45 0 -2 163 -3 162 -85 -1
c-47 -1 -142 -2 -212 -3 l-128 -1 0 -160 0 -160 -40 0 c-22 0 -40 1 -40 3 -1
1 -4 158 -7 349 l-6 347 39 3 c21 2 42 1 46 -2 4 -3 9 -73 10 -155z"/>
<path style="fill:#A10D1A;" d="M6044 1621 c-69 -30 -99 -134 -57 -198 36 -54 115 -68 192 -33 l44
20 -6 59 c-8 97 -46 147 -118 156 -19 3 -43 1 -55 -4z"/>
<path style="fill:#A10D1A;" d="M4720 1498 l0 -128 58 0 c110 1 172 51 172 141 0 33 -6 47 -34 75
-35 35 -34 35 -153 39 l-43 2 0 -129z"/>
<path style="fill:#A10D1A;" d="M4720 1175 l0 -138 94 6 c106 6 147 22 176 70 25 41 25 83 0 124 -33
55 -62 67 -172 71 l-98 4 0 -137z"/>
<path style="fill:#A10D1A;" d="M3340 1479 l0 -132 85 5 c72 5 91 10 120 32 83 63 64 189 -33 216
-20 5 -67 10 -104 10 l-68 0 0 -131z"/>
</g>
</svg>
