<?xml version="1.0" standalone="no"?>
<!DOCTYPE svg PUBLIC "-//W3C//DTD SVG 20010904//EN"
 "http://www.w3.org/TR/2001/REC-SVG-20010904/DTD/svg10.dtd">
<svg version="1.0" xmlns="http://www.w3.org/2000/svg"
 width="800.000000pt" height="266.000000pt" viewBox="0 0 800.000000 266.000000"
 preserveAspectRatio="xMidYMid meet">
<metadata>
Created by potrace 1.15, written by Peter Selinger 2001-2017
</metadata>
<g transform="translate(0.000000,266.000000) scale(0.100000,-0.100000)"
fill="#000000" stroke="none">
<path d="M6440 2635 c-389 -63 -726 -300 -956 -672 -11 -17 -13 -17 -40 8 -81
73 -225 147 -349 179 -294 76 -612 -8 -828 -220 l-77 -76 -48 49 c-230 236
-560 322 -882 231 -131 -37 -335 -167 -398 -253 l-22 -31 -65 64 c-77 76 -149
125 -248 171 -127 59 -184 70 -362 70 -140 0 -169 -3 -234 -24 -157 -49 -252
-104 -366 -212 l-76 -72 -47 45 c-104 99 -210 159 -359 204 -78 24 -105 27
-233 27 -129 0 -155 -2 -233 -26 -161 -50 -287 -126 -394 -241 -106 -112 -168
-233 -204 -396 -24 -108 -24 -191 0 -306 34 -167 94 -283 206 -402 65 -69 171
-152 194 -152 5 0 16 -6 23 -13 19 -19 102 -53 188 -77 281 -79 612 12 825
228 l65 65 48 -47 c91 -92 206 -159 349 -203 79 -24 104 -27 238 -27 125 0
163 4 230 22 149 42 269 111 390 224 l65 60 68 -64 c182 -171 391 -247 650
-235 227 10 421 97 581 261 l55 56 70 -68 c39 -38 93 -83 119 -101 160 -109
390 -165 582 -141 164 20 312 78 432 170 l53 40 16 -28 c107 -175 200 -289
315 -388 591 -505 1479 -410 1945 209 192 254 292 593 263 892 -38 403 -223
730 -546 967 -133 98 -271 162 -453 210 -102 26 -134 30 -290 34 -119 2 -202
-1 -260 -11z m405 -30 c487 -69 892 -403 1044 -861 53 -159 65 -234 64 -409 0
-175 -13 -255 -63 -407 -224 -673 -966 -1045 -1640 -822 -187 62 -374 178
-514 318 -87 87 -190 224 -234 311 l-20 40 46 57 46 57 36 -67 c215 -406 599
-642 1046 -642 324 0 609 120 839 355 137 139 240 320 292 512 25 90 27 114
27 288 0 174 -2 198 -26 287 -95 349 -363 652 -688 778 -172 66 -227 75 -440
75 -179 -1 -203 -3 -293 -27 -114 -31 -257 -97 -359 -165 -145 -96 -309 -276
-379 -415 -16 -32 -33 -58 -37 -57 -4 0 -26 25 -50 55 l-43 55 37 61 c156 257
433 478 717 572 67 22 112 32 277 59 58 10 222 6 315 -8z m-1760 -483 c100
-28 168 -55 228 -94 322 -206 455 -579 331 -932 -97 -277 -362 -486 -670 -527
-202 -27 -425 31 -599 156 -61 43 -155 138 -155 156 0 6 7 21 16 34 l16 25 65
-70 c108 -117 246 -194 405 -226 103 -21 274 -14 363 14 259 82 442 269 511
522 25 89 25 271 1 359 -89 321 -376 541 -707 542 -233 2 -423 -79 -575 -243
-36 -39 -67 -69 -69 -67 -37 47 -37 50 2 97 104 127 281 226 478 267 90 19
265 12 359 -13z m-2770 -3 c398 -65 686 -421 662 -818 -7 -123 -27 -194 -83
-309 -131 -265 -425 -442 -734 -442 -468 0 -831 373 -807 830 16 325 232 604
546 710 137 46 261 54 416 29z m1425 -9 c158 -45 309 -142 407 -259 62 -76
134 -216 158 -310 67 -262 -13 -550 -207 -744 -275 -274 -718 -319 -1045 -105
-71 46 -193 158 -193 176 0 4 9 18 19 31 l18 23 79 -78 c116 -116 229 -176
386 -208 299 -61 619 73 782 327 117 182 144 417 74 621 -144 417 -635 613
-1038 415 -84 -41 -196 -126 -240 -183 -19 -25 -39 -44 -45 -42 -5 1 -17 15
-25 30 -15 27 -15 28 61 101 119 114 246 181 420 220 92 21 291 13 389 -15z
m-2760 -21 c148 -23 282 -85 405 -186 81 -67 91 -84 69 -119 l-17 -25 -61 59
c-145 143 -317 213 -524 214 -127 1 -220 -21 -342 -80 -79 -38 -109 -60 -181
-131 -150 -151 -220 -313 -220 -517 0 -116 23 -215 77 -323 39 -79 62 -110
133 -181 97 -96 179 -148 296 -187 74 -25 92 -27 235 -27 142 0 161 3 229 27
136 49 248 125 328 220 21 25 43 44 48 43 6 -1 17 -15 25 -30 15 -28 15 -28
-66 -104 -459 -433 -1206 -223 -1359 383 -26 101 -24 266 4 370 81 305 328
533 638 589 95 17 197 19 283 5z m6440 -391 c119 -36 167 -165 101 -270 -16
-25 -39 -49 -50 -53 -26 -8 -27 -22 -3 -29 27 -9 68 -56 81 -95 56 -169 -116
-306 -308 -244 -51 16 -51 16 -51 59 l0 43 43 -19 c115 -53 237 2 237 105 0
82 -66 128 -178 124 l-67 -3 -3 41 -3 42 73 -1 c82 -1 127 16 154 58 22 33 21
94 -2 129 -36 55 -140 73 -214 35 -22 -11 -42 -20 -45 -20 -3 0 -5 18 -5 40 0
35 4 42 28 51 68 27 138 29 212 7z m-1267 1 c110 -30 175 -166 147 -305 -21
-105 -66 -180 -165 -279 -49 -50 -107 -99 -128 -110 l-37 -20 -31 31 -31 31
48 28 c61 36 172 147 203 204 l23 43 -23 -8 c-13 -5 -54 -9 -91 -9 -59 0 -70
3 -104 31 -68 54 -79 77 -79 157 0 111 38 169 131 202 47 17 87 18 137 4z
m555 -31 l3 -38 -110 0 -111 0 0 -27 c0 -16 -3 -58 -7 -95 l-6 -68 45 0 c63 0
142 -42 176 -93 21 -32 28 -55 30 -112 5 -83 -9 -122 -61 -175 -70 -72 -195
-94 -291 -51 -43 18 -46 23 -46 57 0 33 2 36 23 29 94 -29 122 -34 158 -26 83
19 129 74 129 155 0 99 -64 152 -183 150 l-68 -2 6 92 c3 50 8 123 11 163 l6
72 121 3 c67 2 133 3 147 3 22 0 25 -5 28 -37z m-1787 7 c80 -28 119 -85 119
-170 0 -55 -19 -95 -61 -128 l-32 -25 34 -11 c173 -59 152 -300 -30 -351 -20
-5 -100 -10 -178 -10 l-142 0 -3 333 c-2 182 -2 342 0 355 3 21 6 22 126 22
85 0 137 -5 167 -15z m-1319 -37 c54 -32 88 -92 88 -154 0 -56 -37 -125 -81
-149 l-36 -20 26 -26 c24 -23 211 -311 211 -324 0 -3 -21 -5 -47 -5 l-48 0
-87 138 c-48 76 -98 148 -112 161 -27 25 -79 38 -138 33 l-38 -3 0 -165 0
-164 -45 0 -45 0 0 356 0 356 153 -4 c145 -3 154 -4 199 -30z m-2260 -8 c-3
-14 -186 -493 -241 -630 -22 -55 -30 -65 -51 -65 -22 0 -32 20 -129 267 -58
148 -109 268 -112 268 -3 0 -51 -120 -106 -267 -137 -367 -115 -372 -290 67
-73 184 -136 343 -139 353 -5 15 1 17 43 17 l48 0 29 -78 c59 -161 169 -437
176 -445 8 -9 26 36 136 336 l68 188 35 -3 35 -3 63 -165 c35 -91 80 -207 99
-257 20 -51 39 -93 43 -93 4 0 13 17 20 38 8 20 43 114 78 207 36 94 74 193
85 222 20 53 33 62 88 59 17 -1 24 -6 22 -16z m5268 -723 c0 -20 -5 -23 -35
-23 -44 0 -55 -11 -62 -62 -5 -39 -4 -41 23 -44 38 -4 39 -32 2 -36 l-27 -3
-3 -122 c-3 -114 -4 -122 -23 -122 -19 0 -20 8 -23 123 l-3 122 -25 0 c-33 0
-29 33 4 38 17 3 22 10 22 34 0 41 26 93 53 106 12 6 39 11 60 11 32 1 37 -2
37 -22z m48 -133 c8 -14 11 -13 38 2 36 21 99 12 116 -15 11 -17 13 -17 46 5
45 31 93 31 129 0 27 -24 28 -27 31 -145 l4 -121 -26 0 -26 0 0 103 c0 118 -9
140 -58 140 -60 0 -72 -23 -72 -140 l0 -103 -25 0 -25 0 0 102 c0 115 -11 138
-64 138 -59 -1 -66 -15 -66 -134 l0 -106 -25 0 -25 0 0 138 c0 76 3 142 7 145
11 12 32 8 41 -9z"/>
<path d="M2038 2060 c-153 -28 -287 -98 -399 -210 -76 -75 -93 -100 -137 -191
-64 -132 -77 -188 -77 -324 1 -170 52 -319 153 -445 47 -58 47 -58 115 -113
74 -60 178 -113 276 -139 105 -28 276 -28 382 0 361 97 595 433 550 790 -20
160 -78 282 -190 404 -95 103 -203 169 -339 209 -76 23 -259 33 -334 19z m-87
-477 c0 -43 1 -113 0 -155 l0 -78 216 0 215 0 -2 143 c-2 78 -2 148 -1 155 1
7 17 12 46 12 l45 0 0 -355 0 -355 -45 0 -45 0 0 160 0 160 -212 0 -213 0 3
-160 3 -160 -51 0 -50 0 0 348 c0 192 3 352 7 355 3 4 24 7 45 7 l38 0 1 -77z"/>
<path d="M6048 1616 c-70 -23 -103 -132 -57 -190 30 -39 76 -59 118 -53 97 14
121 45 102 132 -21 93 -85 136 -163 111z"/>
<path d="M4720 1495 l0 -125 43 0 c105 1 172 42 184 113 14 87 -43 137 -156
137 l-71 0 0 -125z"/>
<path d="M4720 1181 l0 -131 83 0 c107 0 151 13 178 52 28 38 31 104 6 141
-29 44 -72 60 -174 65 l-93 4 0 -131z"/>
<path d="M3340 1498 c0 -57 3 -114 7 -127 6 -23 8 -23 82 -17 106 10 149 39
165 113 10 42 -17 99 -55 118 -18 10 -58 15 -114 15 l-85 0 0 -102z"/>
</g>
</svg>
